# xmcd
#
# Track frame offsets: 
#        150
#        24449
#        41076
#        54118
#        69288
#        89920
#        104471
#        122060
#        137276
#        152562
#        166891
#        183079
#        196946
#        214211
#        233205
#        253209
#        267007
#        282078
#
# Disc length: 3973 seconds
#
# Revision: 0
# Processed by: cddbd v1.5.2PL0 Copyright (c) Steve Scherf et al.
# Submitted via: ExactAudioCopyFreeDBPlugin 1.0
#
DISCID=f40f8312
DTITLE=Various Artist - Country balady
DYEAR=2008
DGENRE=Country
TTITLE0=Čím dál tíž se dýchá [Robert Křesťan and Druhá tráva]
TTITLE1=Mé září [Pavel Bobek a Katka García]
TTITLE2=Smutný psaní [Rangers]
TTITLE3=Pane můj [Michal Tučný]
TTITLE4=Hvězda tvá, indiánská [Honza Vyčítal]
TTITLE5=Dům u vycházejícího slunce [Věra Martinová]
TTITLE6=Kdybys tak věděla ... [Wabi Daněk]
TTITLE7=Paměť slonů [Roman Horký a Kamelot]
TTITLE8=New York 2011 [František Nedvěd]
TTITLE9=Vše je pryč [Jakub Smolík]
TTITLE10=Hobo song [Taxmeni]
TTITLE11=Tom Dooley [Ladislav Vodička]
TTITLE12=Dívka s vlasem medovým [MIrek Hoffmann a Helena Maršálková]
TTITLE13=Čtvrté přání [Karel Černoch]
TTITLE14=Dlouhá řeka [Schovanky a Vladimír Tesařík]
TTITLE15=Big Bad John [Mirek Černý]
TTITLE16=Bedna od whisky [Nezmaři a Karabina]
TTITLE17=Blízko Little Big Hornu [Pacifik, Primavolta a Ihoka]
EXTD=
EXTT0=
EXTT1=
EXTT2=
EXTT3=
EXTT4=
EXTT5=
EXTT6=
EXTT7=
EXTT8=
EXTT9=
EXTT10=
EXTT11=
EXTT12=
EXTT13=
EXTT14=
EXTT15=
EXTT16=
EXTT17=
PLAYORDER=
